<?xml version="1.0" encoding="UTF-8"?>
<svg id="Layer_2" data-name="Layer 2" xmlns="http://www.w3.org/2000/svg" viewBox="0 0 401.91 401.91">
  <defs>
    <style>
      .cls-1 {
        fill: #d0c3a5;
      }

      .cls-2 {
        fill: #0d1526;
      }
    </style>
  </defs>
  <g id="Logos">
    <g>
      <path class="cls-1" d="M266.12,140.8l-96.5-96.5,31.33-31.33c17.3-17.3,45.36-17.3,62.66,0l65.17,65.17-62.66,62.66Z"/>
      <path class="cls-2" d="M388.93,200.95l-31.33,31.33-60.15-60.15,62.66-62.66,28.82,28.82c17.3,17.3,17.3,45.36,0,62.66Z"/>
      <path class="cls-2" d="M44.31,169.62l60.15,60.15-62.66,62.66-28.82-28.82c-17.3-17.3-17.3-45.36,0-62.66l31.33-31.33Z"/>
      <rect class="cls-2" x="156.65" y="68.03" width="88.61" height="265.84" transform="translate(-83.24 200.95) rotate(-45)"/>
      <path class="cls-1" d="M135.79,261.11l96.5,96.5-31.33,31.33c-17.3,17.3-45.36,17.3-62.66,0l-65.17-65.17,62.66-62.66Z"/>
    </g>
  </g>
</svg>