<?xml version="1.0" encoding="UTF-8"?>
<svg id="Layer_2" data-name="Layer 2" xmlns="http://www.w3.org/2000/svg" viewBox="0 0 400 400">
  <defs>
    <style>
      .cls-1 {
        fill: #d0c3a5;
      }

      .cls-2 {
        fill: #fcfcf7;
      }
    </style>
  </defs>
  <g id="Logos">
    <g>
      <path class="cls-2" d="M264.86,140.13l-96.04-96.04,31.18-31.18c17.22-17.22,45.14-17.22,62.36,0l64.86,64.86-62.36,62.36Z"/>
      <path class="cls-1" d="M387.09,200l-31.18,31.18-59.87-59.87,62.36-62.36,28.69,28.69c17.22,17.22,17.22,45.14,0,62.36Z"/>
      <path class="cls-1" d="M44.09,168.82l59.87,59.87-62.36,62.36-28.69-28.69c-17.22-17.22-17.22-45.14,0-62.36l31.18-31.18Z"/>
      <rect class="cls-1" x="155.9" y="67.71" width="88.19" height="264.58" transform="translate(-82.84 200) rotate(-45)"/>
      <path class="cls-2" d="M135.14,259.87l96.04,96.04-31.18,31.18c-17.22,17.22-45.14,17.22-62.36,0l-64.86-64.86,62.36-62.36Z"/>
    </g>
  </g>
</svg>